<?xml version="1.0" ?><svg xmlns="http://www.w3.org/2000/svg" xmlns:xlink="http://www.w3.org/1999/xlink" version="1.0" viewBox="0 0 48 48" enable-background="new 0 0 48 48" xml:space="preserve"><g id="Layer_1"/><g id="_x31__x5F_Briefcase"><path d="M45,27v11c0,1.654-1.346,3-3,3H6c-1.654,0-3-1.346-3-3V27c0-0.553,0.448-1,1-1s1,0.447,1,1v11c0,0.552,0.449,1,1,1h36   c0.552,0,1-0.448,1-1V27c0-0.553,0.447-1,1-1S45,26.447,45,27z M17,13v-3c0-1.654,1.346-3,3-3h8c1.654,0,3,1.346,3,3v3   c0,0.552-0.447,1-1,1H18C17.448,14,17,13.552,17,13z M19,12h10v-2c0-0.551-0.448-1-1-1h-8c-0.551,0-1,0.449-1,1V12z M45,15v5   c0,2.757-2.243,5-5,5h-4v3c0,0.553-0.447,1-1,1h-4c-0.553,0-1-0.447-1-1v-3H19v3c0,0.553-0.448,1-1,1h-4c-0.552,0-1-0.447-1-1v-3H8   c-2.757,0-5-2.243-5-5v-5c0-1.654,1.346-3,3-3h8c0.552,0,1,0.448,1,1s-0.448,1-1,1H6c-0.551,0-1,0.449-1,1v5c0,1.654,1.346,3,3,3h6   h4h13h4h5c1.654,0,3-1.346,3-3v-5c0-0.551-0.448-1-1-1h-8c-0.553,0-1-0.448-1-1s0.447-1,1-1h8C43.654,12,45,13.346,45,15z M17,25   h-2v2h2V25z M34,25h-2v2h2V25z"/></g></svg>