<svg id="Layer_1" data-name="Layer 1" xmlns="http://www.w3.org/2000/svg" viewBox="0 0 94 94"><path d="M2.8,80.11A.75.75,0,0,1,2.15,79L14.89,57.24a.75.75,0,0,1,.63-.38.78.78,0,0,1,.65.35L29.92,79a.76.76,0,0,1-.24,1,.75.75,0,0,1-1-.24L15.56,59.06,3.44,79.74A.74.74,0,0,1,2.8,80.11Z"/><path d="M54.76,80.11a.73.73,0,0,1-.63-.35L36.69,52.18,25,72.07a.75.75,0,0,1-1,.27.77.77,0,0,1-.27-1L36,50.36a.72.72,0,0,1,.63-.37.74.74,0,0,1,.65.35L55.4,79a.76.76,0,0,1-.24,1A.8.8,0,0,1,54.76,80.11Z"/><path d="M91.25,80.11a.74.74,0,0,1-.64-.35L63.28,36.54,46.36,65.43a.75.75,0,1,1-1.29-.76L62.61,34.72a.73.73,0,0,1,.64-.37.76.76,0,0,1,.64.34L91.88,79a.76.76,0,0,1-.23,1A.86.86,0,0,1,91.25,80.11Z"/><path d="M13.69,68a4.51,4.51,0,0,1-3.61-1.63.73.73,0,0,1,.17-1,.74.74,0,0,1,1,.16c.06.07,1.23,1.56,3.85.78a11.33,11.33,0,0,1,6.74.28.75.75,0,0,1-.56,1.39,9.92,9.92,0,0,0-5.75-.23A6.48,6.48,0,0,1,13.69,68Z"/><path d="M31.76,64.64a3.35,3.35,0,0,1-2.83-1.36.75.75,0,0,1,1.25-.83c.11.15,1.09,1.41,3.58.11,1.81-.94,3.62-.48,5.37,0s3.38.86,5.15.06A.75.75,0,0,1,44.9,64c-2.25,1-4.32.5-6.14,0-1.61-.41-3-.77-4.31-.08A5.92,5.92,0,0,1,31.76,64.64Z"/><path d="M67,53.46a4.76,4.76,0,0,1-3.74-1.74c-3.53-4.26-8.47-.55-8.68-.39a.75.75,0,0,1-.91-1.19c2.15-1.67,7.18-3.68,10.74.63a3.41,3.41,0,0,0,3.42,1.1,4.56,4.56,0,0,0,3.43-3.24.75.75,0,0,1,1.44.41,6,6,0,0,1-4.56,4.29A5,5,0,0,1,67,53.46Z"/><path d="M63.26,35.85a.75.75,0,0,1-.75-.75V28.19h0V16.61a.76.76,0,0,1,.5-.71.77.77,0,0,1,.84.25,3.62,3.62,0,0,0,2.44,1.23c1.27.06,2.61-.66,4-2.12l.1-.09A6.33,6.33,0,0,1,75.08,14a6.17,6.17,0,0,1,4,3,.76.76,0,0,1,.13.41V27.56a.75.75,0,0,1-.44.68.73.73,0,0,1-.8-.11s-3.32-2.76-5.55-.81c-3,2.62-6,3.39-8.43,2.23V35.1A.76.76,0,0,1,63.26,35.85Zm.75-8c2.67,1.9,5.79-.18,7.44-1.63,2-1.74,4.55-1.05,6.28-.06V17.56a4.65,4.65,0,0,0-2.92-2.11,4.75,4.75,0,0,0-3.49.9c-1.69,1.76-3.43,2.62-5.13,2.53A4.88,4.88,0,0,1,64,18.21Z"/><path d="M34.81,34.3a6.38,6.38,0,1,1,6.37-6.38A6.38,6.38,0,0,1,34.81,34.3Zm0-11.26a4.88,4.88,0,1,0,4.87,4.88A4.89,4.89,0,0,0,34.81,23Z"/><path d="M34.8,37.11a9.15,9.15,0,0,1-4.49-1.18.75.75,0,1,1,.74-1.3,7.68,7.68,0,0,0,7.51,0,.75.75,0,0,1,.74,1.31A9.29,9.29,0,0,1,34.8,37.11Z"/><path d="M26.79,68.35A.74.74,0,0,1,26,67.6V45.77a5.24,5.24,0,0,0-1.26-3.4l-12-14a3.35,3.35,0,0,1,.14-4.52,3.29,3.29,0,0,1,2.51-1A3.35,3.35,0,0,1,17.9,24l9.23,10.58h3.55a.79.79,0,0,1,.37.1,7.68,7.68,0,0,0,7.51,0,.69.69,0,0,1,.37-.1h3.55L51.71,24a3.34,3.34,0,0,1,2.45-1.15,3.4,3.4,0,0,1,2.51,1,3.34,3.34,0,0,1,.13,4.52l-12,14a5.23,5.23,0,0,0-1.25,3.4V60.48a.75.75,0,0,1-.75.75h0a.74.74,0,0,1-.75-.75V45.77a6.72,6.72,0,0,1,1.61-4.37l12-14a1.86,1.86,0,0,0-.07-2.51,1.87,1.87,0,0,0-2.75.07L43.45,35.7a.74.74,0,0,1-.62.33H39.12a9.3,9.3,0,0,1-8.63,0h-3.7a.73.73,0,0,1-.57-.26L16.77,24.94a1.83,1.83,0,0,0-1.36-.64,1.81,1.81,0,0,0-1.39.57,1.86,1.86,0,0,0-.08,2.51l12,14a6.71,6.71,0,0,1,1.62,4.37V67.6A.75.75,0,0,1,26.79,68.35Z"/><path d="M92,80.11H2a.75.75,0,0,1,0-1.5H92a.75.75,0,0,1,0,1.5Z"/></svg>